<!DOCTYPE svg PUBLIC "-//W3C//DTD SVG 1.1//EN" "http://www.w3.org/Graphics/SVG/1.1/DTD/svg11.dtd">
<svg xmlns="http://www.w3.org/2000/svg" xmlns:xlink="http://www.w3.org/1999/xlink" width="204px" height="364px" version="1.1"><defs/><g transform="translate(0.5,0.5)"><path d="M 201 81 L 201 151 Q 201 161 195.45 169.32 L 166.55 212.68 Q 161 221 151 221 L 51 221 Q 41 221 35.45 212.68 L 6.55 169.32 Q 1 161 1 151 L 1 51 Q 1 41 8.07 33.93 L 33.93 8.07 Q 41 1 51 1 L 151 1 Q 161 1 168.07 8.07 L 193.93 33.93 Q 201 41 201 51 L 201 81" fill="none" stroke="#ffffff" stroke-width="3" stroke-miterlimit="10" pointer-events="none"/><path d="M 91 91 L 83.43 121.3 Q 81 131 71 131 L 41 131 Q 31 131 28.57 121.3 L 21 91" fill="none" stroke="#ffffff" stroke-width="3" stroke-miterlimit="10" pointer-events="none"/><path d="M 1 91 L 201 91" fill="none" stroke="#ffffff" stroke-width="3" stroke-miterlimit="10" pointer-events="none"/><path d="M 181 91 L 173.43 121.3 Q 171 131 161 131 L 131 131 Q 121 131 118.57 121.3 L 111 91" fill="none" stroke="#ffffff" stroke-width="3" stroke-miterlimit="10" pointer-events="none"/><path d="M 91 131 L 91 141 Q 91 151 86.53 159.94 L 83.76 165.47 Q 81 171 91 171 L 111 171 Q 121 171 116.53 162.06 L 113.76 156.53 Q 111 151 111 141 L 111 131" fill="none" stroke="#ffffff" stroke-width="3" stroke-miterlimit="10" pointer-events="none"/><path d="M 1 51 L 31.3 43.43 Q 41 41 49.94 45.47 L 55.47 48.24 Q 61 51 71 51 L 76 51 Q 81 51 90.7 48.57 L 111.3 43.43 Q 121 41 131 41 L 151 41 Q 161 41 170.7 43.43 L 201 51" fill="none" stroke="#ffffff" stroke-width="3" stroke-miterlimit="10" pointer-events="none"/><path d="M 81 221 L 74.16 241.51 Q 71 251 61 251 L 11 251 Q 1 251 6.88 259.09 L 75.12 352.91 Q 81 361 91 361 L 111 361 Q 121 361 126.88 352.91 L 195.12 259.09 Q 201 251 191 251 L 141 251 Q 131 251 127.84 241.51 L 121 221" fill="none" stroke="#ffffff" stroke-width="3" stroke-miterlimit="10" pointer-events="none"/><path d="M 41 251 L 61 251 Q 71 251 78.07 258.07 L 93.93 273.93 Q 101 281 108.07 273.93 L 123.93 258.07 Q 131 251 141 251 L 161 251" fill="none" stroke="#ffffff" stroke-width="3" stroke-miterlimit="10" pointer-events="none"/></g></svg>